<?xml version="1.0" encoding="UTF-8"?>
<svg id="Layer_2" data-name="Layer 2" xmlns="http://www.w3.org/2000/svg" viewBox="0 0 491.07 318.82">
  <defs>
    <style>
      .cls-1 {
        fill: #00A95C;
      }
    </style>
  </defs>
  <g id="Layer_1-2" data-name="Layer 1">
    <g>
      <path class="cls-1" d="M225.02,105.56c.38,1.86,2.51,4.95,3.57,7.18.71,1.31,1.35,2.52,1.81,3.35.55.87.72,1.5,1.6,1.39,3.16-1.34,12.32-6.43,15.95-8.24,1.42-.71,1.52-1.14.46-2.93-1.58-2.78-3.56-6.3-5.21-9.16-.94-1.61-1.25-1.61-2.77-.75-.93.52-1.85,1.04-2.82,1.59-3.21,1.81-6.68,3.77-9.86,5.57-1.62.95-2.61,1.34-2.71,1.93v.08Z"/>
      <path class="cls-1" d="M320.58,126.57c-4.53-16.96-4.44-23.18-15.32-5-.41,1.82,1.1,3.22,2.05,4.69,5.64,8.62,11.79,25.56.94,32.43-23.67,14.94-64.16,14.51-56.98-19.64.88-4.03,3.12-7.63,5.64-10.75,11.29-13.72,3.93-32.81-.09-48.03,9.75-18.75,13.92-40.99-12.4-43.79-2.34-.88-2.73-3.1-2.07-5.2,8.85-22.96,42.49-28.24,59.73-8.12,4.07,4.27,3.98,1.49,1.96-2.29-16.87-35.12-65.75-22.59-70.33,12.75-2.19,7.38-16.46,2.01-22.65,2.75-31.97-2.56-114.92-12.61-95.24,29.03,1.5.35,1.68-1.97,2.22-3.02,5.98-13.47,27.08-13.84,41.23-13.95,9.05.9,33.47-.02,34.17,5.43.84,29.44-4.78,97.83-2.92,126.98,3.19,20.34,22.26,17.54,38.7,18.42,5.7,2.39,19.36,8.03,31.42,12.85,22.12,8.02,19.64,8.4,3.25,22.54-8.03,5.02-97.22.57-111.12,2-5.22-1.06,3.39-5.34,5.91-5.89,24.37-7.99,27.66-23.4,9.59-32.92-23.34-9.35-46.54-9.42-8.27-26.75,18.06-9.52,15.82-.17,21.45-3.15,21.58-40.27-47.12-2.31-51.24,22.49-4.06,14.83,27.4,11.64,35.94,16.74,5.99,4.73-8.61,9.5-12.6,11.02-33.87,12.42-67.62,10.32-64.81-32.96-10.74,20.41-6.28,51.69,20.13,55.9,8.77,2.14,18.98-3.9,27.32-1.39,6.29,5.26,7.92,17.73,6.89,25.45-2.13,5.2-5.8,6.07-15.41,7.76-15.01,1.76-29.78,1.55-44.64.61-9.01-.73-22.37-2.95-21.19-10.87-.98-26.31,16.82-18.31-1.89-36.65-5.17.68-7.6,19.27-8.6,23.1-2.98,24.47,9.7,38.07,42.08,38.5,26.15,2.6,64.82-3.11,60.93-33.36-.11-2.06.14-3.01,1.63-3.12,8.87-.09,27.66-.05,35.11-.03,3.04-.06,2.43,3.8,2.54,5.93.12,20.12-12.8,17.13,7.97,32.52,6,7.08,4.82-35.68,5.28-34.56.07-1.58-.42-3.7,1.72-3.84,4.44-.21,11.27.03,16.69-.06,5.65.1,13.53-.12,18.1.05,2.01.18-.32,1.95-1.13,2.74-10.14,8.44-31.71,24.06-17.04,36.94,12.9,4.38,55.24.77,67.8,1.64,4.49-1.11,5.21-16.29-1.6-14.11-8.33-.93-53.33,5.06-50.79-5.3,13.47-15.09,59.65-36.01,50.63-56.08-3.39-6.68-9.89-7.79-16.3-11.1-19.45-7.37-40.22-22.3-53.39-21.49-13.79,1.34-23.09-2.83-20.39-17.09,1.52-27.01.73-98.99,1.71-115.25,4.75-1.35,11-.38,16.02-.42,4.02.9,10.62-1.53,12.9,2.48.21,5.45,4.55,13.58-1.56,16.63-12.5,9.01-21.14,33.41-19.06,49.07,2.27,13.8,17.26,21.47,30.19,18.46,2.46-.32,5.07-2.31,5.86-.29-9.59,24.81-3.56,43.77,28.12,43.59,31,1.17,55.63-23.99,45.23-54.8l-.05-.22ZM242.74,51.94c4.04-.14,12.95,1.36,14.19,6.1.74,4.18-4.09,11.08-9.19,9.34-4.66-1.1-12.8-13.81-5.17-15.42l.17-.02ZM233.03,123.04c-11.76,0-17.87-6.96-13.8-18.22,2.47-6.35,10.87-21.78,19.11-19.71,6.26,1.11,13.26,9.95,16.35,17.54,7.19,15.78-9.07,20.43-21.45,20.39h-.22Z"/>
      <path class="cls-1" d="M287.98,116.86c1.33-1.11,2.78-4.21,4.06-6.08.78-1.28,1.53-2.47,2.03-3.31.45-.87.93-1.37.44-2.08-2.52-1.88-10.66-6.22-14.15-8.37-.46-.26-.95-.55-1.4-.61-.56-.07-.96.38-1.63,1.37-1.2,1.84-2.84,4.42-4.1,6.38-.98,1.72-2.46,2.83.1,4.11,3.68,2.28,7.62,4.72,11.27,6.99,1.78,1.06,2.7,1.83,3.3,1.62l.07-.03Z"/>
      <path class="cls-1" d="M222.81,160.15c-.65.09-1.24-.35-1.8-.69-2.6-1.58-6.54-4.82-9.19-6-1.26-.14-1.5.89-2.62,2.47-.96,1.52-2.05,3.25-3.03,4.8-.98,1.72-3.08,3.85-.85,5.19,2.42,1.84,5.19,3.82,7.69,5.61,1.6,1.12,2.21.98,3.46-.65,1.38-1.81,2.96-4.04,4.3-5.81,1.73-2.41,2.29-2.05,4.7-.34,2.14,1.5,5.32,3.79,6.94,4.88,1.47,1.09,2.22.55,3.09-.94,1.46-2.36,3.23-5.25,4.7-7.7,1.07-1.79,1.01-2.4-.56-3.62-1.79-1.39-3.83-2.88-5.64-4.25-2.01-1.38-3.05-2.87-4.54-1.11-1.26,1.5-3.87,5.28-5.23,7.01-.37.45-.76.95-1.3,1.12l-.1.02Z"/>
      <path class="cls-1" d="M479.45,116.86c2.93-.9,3.92-4.36,3.76-7.21.04-14.65-.11-27.61-1.8-44.71-.34-3.16-1.83-2.02-3.24-.52-2.29,2.34-5.88,5.95-7.91,8.09-3.89,3.64-.03,9.1.54,13.61.76,3.15,3.21,16.91-1.37,16.62-8.57.26-19.61-.36-28.41.73-17.49.86-30.08,7.23-32.16,26.1-1.4,7.45,1.23,11.98,8.55,14.95,3.18,1.58,6.57,1.57,7.03,3-4.71,6.21-33.74,9.5-41.79,7.84-27.43-3.45-19.31-31.3-13.32-48.55-.33-.68-1.39,1.22-1.83,1.67-6.5,9.04-11.35,23.5-11.82,34.76-.13,1.07-.09,2.8-1.21,2.95-.75.13-2.27-.9-3.13-1.55-5.39-4.04-10.82-8.76-12.37-15.08-.66-2.61-1.36-5.15-2.42-7.61-2.4-6.07-3.18-16.49-2.01-23.48.57-1.5,2.13-2,3.65-2.28,20.15-3.53,57-5.44,63.12,15.18,1.07-.09,1.82-1.83,2.32-2.79,2.63-5.64,1.9-11.7-1.6-16.73-17.46-20.63-57.61-11.47-88.02-10.03-3.26.58-6.82-.54-8.48,1.73-1.06,3.02-.33,7.51-.51,10.46.03.86.02,1.88.6,2.49.58.56,1.87.5,3.89.51,4.11.06,9.66-.12,13.21.09,2.59.06,2.35,2.75,2.33,4.71-.09,10.06.38,21.44,1.34,33.93.14,5.54,2.86,10.28-.83,15.27-17.65,28.01-6.81,38.87,23.22,37.16,8.62-1.22,14.47-8.48,16.17-17.23.28-1.47.8-3.88,2.17-3.89,20.86,11.01,42.43,7.01,64.29-7.71,9.57-6.11,10.55-7.04,10.91-18.68-.67-12.57-24.52-5.19-22.38-18.15,5-9.01,48.34-3.12,59.36-5.61l.16-.05ZM350.63,172.42c-7.42,1.46-18.7,1.56-23.56-3.82-1.58-2.1-.46-3.64.39-6.34,1.4-3.57,3.09-8.17,5.09-11.19,1.32-3.09,12.62,5.51,17.34,9.72,4.51,4.14,9.17,10.11.92,11.58l-.19.04Z"/>
      <path class="cls-1" d="M480.6,125.25c-.56.16-.94.65-1.33,1.1-1.36,1.68-3.92,5.28-5.18,6.74-.43.47-.92.93-1.57.83-2.68-1.03-6.72-4.52-9.32-6.05-1.92-1.35-2.48-.18-3.87,2.05-1.35,2.18-2.87,4.53-4.2,6.73-.97,1.61-.9,2.21.51,3.31,2.19,1.67,4.74,3.49,6.99,5.14,1.7,1.24,2.41,1.51,3.47.26,1.6-1.95,3.26-4.4,4.77-6.37.79-1.03,1.33-1.66,1.94-1.72.67-.09,1.5.49,2.78,1.36,2.09,1.44,5.18,3.61,6.84,4.72.76.48,1.69,1.08,2.41.27,1.97-2.58,3.8-6.01,5.6-8.83,1.62-2.28-.22-3.12-1.85-4.35-1.61-1.18-3.48-2.55-5.07-3.71-1.33-.97-2.17-1.61-2.83-1.5l-.1.02Z"/>
      <path class="cls-1" d="M36.2,238.07c-.81-.22-1.35-1.05-1.93-1.7-2.36-2.91-7.64-9.41-10.23-12.63-.35-.51-1.4-1.56-.8-1.9.69-.24,3.75.81,6.65,1.27,4.88.85,10.05.95,14.81.29,14.23-2,22.35-9.63,19.37-22.65-3.34-20.53-12.07-35.54-6.5-59.39.31-2.87-1.14-1.98-2.5-.48-14.8,16.41-2.69,40.46.35,59.91.22,2.04.29,3.83-1.1,5.22-6.71,5.85-30.02,2.25-40.5,2.42-3.17,0-8.13-.62-9.98,1.25-2.11,2.13-2.99,6.98-3.73,9.23-.31,1.2,0,2.08,1.02,2.67,5.87,3.94,24.96,26.29,31.73,31.17,1.9,1.43,3.59,1.24,5.89.02,5.46-2.96,11.4-11.1,14.16-17.09,1.14-2.57,1.92-4.97,1.24-5.39-.5-.26-1.07.05-1.68.26-3.06,1.41-10.45,5.18-13.78,6.79-.78.36-1.6.85-2.42.76l-.08-.02Z"/>
      <path class="cls-1" d="M93.42,309.16c.13.64,1.21,1.11,2.95,2.22,2.65,1.62,5.6,3.42,8.29,5.07.98.6,1.91,1.17,2.84,1.73,1.49.91,1.84.96,2.68-.55,1.56-2.87,3.41-6.44,4.9-9.24.95-1.74.95-2.26-.45-3.01-3.4-1.81-11.92-6.95-14.89-8.22-.84-.07-.99.59-1.48,1.41-.43.85-1.03,2.09-1.68,3.42-.93,2.18-2.92,5.29-3.18,7.09v.08Z"/>
      <path class="cls-1" d="M205.55,218.42c-.42-1.83-2.71-5.03-3.84-7.26-.79-1.39-1.53-2.7-2.05-3.59-.58-.86-.74-1.53-1.62-1.46-2.97,1.3-11.84,6.65-15.42,8.57-1.43.78-1.52,1.24-.48,3.08,1.49,2.74,3.31,6.24,4.88,9.03.79,1.35,1.2,1.15,2.81.31,4.25-2.23,8.76-4.59,12.99-6.81,1.62-.88,2.6-1.24,2.71-1.8v-.07Z"/>
      <path class="cls-1" d="M296.2,278.15h0c.14,0,.14,0,0,0Z"/>
      <path class="cls-1" d="M86.16,123.53c11.99-.07,26.13,5.68,32.47,15.58,1.56,2.76,3.77,6.66,2.51,9.78-1.6,1.95-5.37,1.28-7.78,1.99-6.43,1.1-11.3,4.91-13.29,9.62-2.83,6.25-2.02,14.41.7,21.52,3.56,8.74,9.95,17.79,17.79,15.58,11.3-4.74,13.37-28.45,12.97-39.03-1.07-45.64-56.65-65.91-75.1-19.82.09.28.52.1,1.2-.44,8.97-8.68,18.72-14.94,28.35-14.79h.18ZM123.18,167.21c.36,3.48-1.14,7.33-3.23,10.26-7.84,9.74-20.88-5.97-9.76-10.3,3.01-1.18,11.56-4.34,12.95-.12l.04.16Z"/>
    </g>
  </g>
</svg>